PathFileType	4	(x/y/z)	Passive_Pref0007.trc
DataRate	CameraRate	NumFrames	NumMarkers	Units	OrigDataRate	OrigDataStartFrame	OrigNumFrames
240	240	4	50	mm	240	262	299
Frame#	Time	R_AC			L_AC			HEAD			STERN			C7			L_IC			R_IC			L_ASIS			R_ASIS			L_GT			R_GT			R_PSIS			L_PSIS			SACRAL			L_LAT_KNEE			L_MED_KNEE			R_LAT_KNEE			R_MED_KNEE			L_LAT_ANK			L_MED_ANK			R_LAT_ANK			R_MED_ANK			L_THIGH_PROX_POST			L_THIGH_PROX_ANT			L_THIGH_DIST_ANT			L_THIGH_DIST_POST			R_THIGH_PROX_POST			R_THIGH_PROX_ANT			R_THIGH_DIST_ANT			R_THIGH_DIST_POST			L_SHANK_PROX_POST			L_SHANK_PROX_ANT			L_SHANK_DIST_ANT			L_SHANK_DIST_POST			R_SHANK_PROX_POST			R_SHANK_PROX_ANT			R_SHANK_DIST_ANT			R_SHANK_DIST_POST			L_HEEL_LAT			L_HEEL_SUP			L_HEEL_MED			R_HEEL_LAT			R_HEEL_SUP			R_HEEL_MED			L_1ST_MET			L_5TH_MET			L_TOE			R_1ST_MET			R_5TH_MET			R_TOE			
		X1	Y1	Z1	X2	Y2	Z2	X3	Y3	Z3	X4	Y4	Z4	X5	Y5	Z5	X6	Y6	Z6	X7	Y7	Z7	X8	Y8	Z8	X9	Y9	Z9	X10	Y10	Z10	X11	Y11	Z11	X12	Y12	Z12	X13	Y13	Z13	X14	Y14	Z14	X15	Y15	Z15	X16	Y16	Z16	X17	Y17	Z17	X18	Y18	Z18	X19	Y19	Z19	X20	Y20	Z20	X21	Y21	Z21	X22	Y22	Z22	X23	Y23	Z23	X24	Y24	Z24	X25	Y25	Z25	X26	Y26	Z26	X27	Y27	Z27	X28	Y28	Z28	X29	Y29	Z29	X30	Y30	Z30	X31	Y31	Z31	X32	Y32	Z32	X33	Y33	Z33	X34	Y34	Z34	X35	Y35	Z35	X36	Y36	Z36	X37	Y37	Z37	X38	Y38	Z38	X39	Y39	Z39	X40	Y40	Z40	X41	Y41	Z41	X42	Y42	Z42	X43	Y43	Z43	X44	Y44	Z44	X45	Y45	Z45	X46	Y46	Z46	X47	Y47	Z47	X48	Y48	Z48	X49	Y49	Z49	X50	Y50	Z50	

262	1.0911	545.33	1532	525.12	512.74	1552.5	121.72	600.41	1852.8	341.76	615.07	1489.4	327.85	466.58	1584	333.86	504.82	1113.3	162.76	512.91	1131.7	505.11	585.07	1045	202.54	577.78	1043.9	473.15	500.62	957.77	143.35	463.15	970.21	508	362.96	1047.2	364.67	364.33	1037.9	278.83	353.79	1009	321.8	689.5	589.24	171.74	701.32	595.17	309.8	411.5	557.09	472.01	422.35	558.05	338.19	694.98	141.72	168.3	676.19	132.85	248.4	289.31	110.65	407.16	326.91	133.38	307.01	604.99	813.8	152.04	659.81	834.88	188.51	685.81	768.84	196.45	638.92	745.64	161.39	405.84	833.12	485.12	462.36	827.38	511.8	449.34	753.88	502.18	400.05	759.96	476.31	698.39	534.18	181.4	747.51	567.26	199.3	755.69	500.24	209.42	709.49	472.98	182.18	327.65	406.96	466.36	384.9	396.39	465.74	369.58	323.38	451.6	314.21	331.48	450.97	645.11	67.556	155.85	620.42	88.588	187.56	631.22	57.253	221.76	211.47	82.466	364.11	219.9	109.88	329.19	241.39	79.432	304.89	832.76	70.505	290.07	843.69	82.345	173.88	893.27	107.62	263.92	451.51	42.871	327.28	402.58	35.98	439.5	498.37	42.633	387.82
263	1.0953	550.22	1531.2	524.85	517.58	1551.6	121.45	605.26	1852	341.43	619.87	1488.5	327.57	471.44	1583.2	333.63	509.4	1112.4	162.65	517.48	1131.1	505.01	589.64	1044.1	202.49	582.25	1043.1	473.11	505.15	956.78	143.42	467.32	969.85	508.08	367.51	1046.6	364.56	368.94	1037.2	278.73	358.27	1008.4	321.78	694.65	588.72	172.47	706.5	594.95	310.51	412.86	557.27	472.03	423.71	558.12	338.23	708.92	141.43	169.11	690.42	132.25	249.23	289.53	111.02	407.11	327.28	133.68	306.97	609.47	812.76	152.36	664.5	833.85	188.75	690.23	767.87	196.97	643.4	744.61	161.92	409.14	833.31	485.11	465.6	827.2	511.77	452.16	753.79	502.14	402.9	760.2	476.28	704.61	533.86	182.15	753.09	567.88	199.99	762.59	501.05	210.11	716.91	472.89	182.91	328.41	407.37	466.34	385.62	396.65	465.81	370.16	323.67	451.67	314.82	331.91	450.96	660.43	66.28	156.71	635.44	86.833	188.5	646.76	55.583	222.65	211.67	83.039	364	220.17	110.45	329.08	241.62	79.956	304.79	848.15	72.963	290.73	858.72	84.953	174.51	907.88	111.21	264.48	451.61	42.837	327.3	402.59	35.98	439.5	498.43	42.523	387.86
264	1.0995	555.14	1530.3	524.58	522.43	1550.8	121.18	610.1	1851.1	341.1	624.69	1487.6	327.29	476.31	1582.4	333.39	513.99	1111.4	162.52	522.06	1130.3	504.9	594.23	1043.1	202.44	586.74	1042.4	473.06	509.71	955.73	143.47	471.52	969.46	508.15	372.09	1046.1	364.44	373.56	1036.4	278.63	362.76	1007.7	321.75	699.74	588.13	173.19	711.67	594.7	311.2	414.24	557.43	472.05	425.09	558.19	338.27	722.66	141.24	169.94	704.5	131.76	250.09	289.75	111.39	407.05	327.66	133.99	306.93	613.93	811.66	152.66	669.17	832.75	188.92	694.63	766.81	197.46	647.87	743.5	162.43	412.47	833.49	485.1	468.87	827.01	511.74	454.99	753.69	502.09	405.78	760.42	476.24	710.76	533.49	182.87	758.58	568.45	200.64	769.4	501.82	210.76	724.22	472.78	183.63	329.19	407.77	466.32	386.36	396.91	465.88	370.75	323.95	451.75	315.43	332.35	450.95	675.58	65.144	157.64	650.3	85.221	189.51	661.9	54.072	223.58	211.86	83.611	363.88	220.44	111.03	328.96	241.84	80.483	304.69	863.34	75.535	291.36	873.51	87.648	175.11	922.26	114.88	264.97	451.71	42.804	327.33	402.61	35.979	439.5	498.5	42.414	387.9
265	1.1037	560.09	1529.3	524.3	527.27	1549.9	120.9	614.95	1850.2	340.76	629.53	1486.6	326.99	481.2	1581.5	333.16	518.6	1110.3	162.39	526.65	1129.6	504.78	598.83	1042	202.37	591.24	1041.6	472.99	514.29	954.64	143.51	475.72	969.05	508.23	376.69	1045.5	364.32	378.21	1035.6	278.52	367.27	1007	321.72	704.77	587.49	173.89	716.84	594.4	311.86	415.65	557.59	472.07	426.51	558.26	338.31	736.22	141.15	170.78	718.45	131.38	250.97	289.96	111.76	406.99	328.04	134.29	306.9	618.38	810.49	152.94	673.79	831.59	189.03	699.01	765.68	197.93	652.31	742.33	162.92	415.82	833.64	485.08	472.17	826.8	511.71	457.85	753.58	502.03	408.69	760.63	476.2	716.84	533.09	183.58	764.02	568.95	201.25	776.11	502.56	211.38	731.45	472.65	184.33	329.98	408.17	466.3	387.11	397.16	465.94	371.35	324.24	451.82	316.06	332.78	450.94	690.53	64.142	158.61	664.99	83.749	190.58	676.54	52.717	224.53	212.06	84.185	363.77	220.71	111.62	328.85	242.07	81.013	304.58	878.32	78.21	291.97	888.04	90.419	175.67	936.42	118.62	265.4	451.8	42.773	327.37	402.62	35.979	439.5	498.56	42.307	387.94
